<svg width="200" height="150" viewBox="0 0 200 150" fill="none" xmlns="http://www.w3.org/2000/svg">
  <!-- Body -->
  <ellipse cx="100" cy="85" rx="45" ry="25" fill="#8B4513"/>
  <!-- Head -->
  <ellipse cx="100" cy="45" rx="25" ry="20" fill="#8B4513"/>
  <!-- Ears -->
  <ellipse cx="85" cy="35" rx="8" ry="12" fill="#654321"/>
  <ellipse cx="115" cy="35" rx="8" ry="12" fill="#654321"/>
  <!-- Eyes -->
  <circle cx="92" cy="40" r="3" fill="#000"/>
  <circle cx="108" cy="40" r="3" fill="#000"/>
  <!-- Nose -->
  <ellipse cx="100" cy="50" rx="6" ry="4" fill="#000"/>
  <!-- Legs -->
  <rect x="75" y="100" width="8" height="30" fill="#8B4513"/>
  <rect x="85" y="100" width="8" height="30" fill="#8B4513"/>
  <rect x="107" y="100" width="8" height="30" fill="#8B4513"/>
  <rect x="117" y="100" width="8" height="30" fill="#8B4513"/>
  <!-- Spots -->
  <ellipse cx="85" cy="75" rx="8" ry="5" fill="#FFF"/>
  <ellipse cx="115" cy="75" rx="8" ry="5" fill="#FFF"/>
  <ellipse cx="100" cy="90" rx="6" ry="4" fill="#FFF"/>
  <!-- Tail -->
  <path d="M 140 85 Q 150 75 155 85" stroke="#8B4513" stroke-width="3" fill="none"/>
  <ellipse cx="155" cy="85" rx="3" ry="2" fill="#8B4513"/>
</svg> 