<svg width="64" height="64" viewBox="0 0 64 64" fill="none" xmlns="http://www.w3.org/2000/svg">
  <!-- Body -->
  <ellipse cx="32" cy="40" rx="20" ry="12" fill="#8B4513"/>
  <!-- Head -->
  <ellipse cx="32" cy="20" rx="12" ry="10" fill="#8B4513"/>
  <!-- Ears -->
  <ellipse cx="26" cy="16" rx="4" ry="6" fill="#654321"/>
  <ellipse cx="38" cy="16" rx="4" ry="6" fill="#654321"/>
  <!-- Eyes -->
  <circle cx="29" cy="18" r="2" fill="#000"/>
  <circle cx="35" cy="18" r="2" fill="#000"/>
  <!-- Nose -->
  <ellipse cx="32" cy="22" rx="3" ry="2" fill="#000"/>
  <!-- Legs -->
  <rect x="24" y="48" width="4" height="12" fill="#8B4513"/>
  <rect x="28" y="48" width="4" height="12" fill="#8B4513"/>
  <rect x="32" y="48" width="4" height="12" fill="#8B4513"/>
  <rect x="36" y="48" width="4" height="12" fill="#8B4513"/>
  <!-- Spots -->
  <ellipse cx="26" cy="36" rx="4" ry="2" fill="#FFF"/>
  <ellipse cx="38" cy="36" rx="4" ry="2" fill="#FFF"/>
  <!-- Tail -->
  <path d="M 50 40 Q 55 35 58 40" stroke="#8B4513" stroke-width="2" fill="none"/>
  <ellipse cx="58" cy="40" rx="2" ry="1" fill="#8B4513"/>
</svg> 